<svg width="259" height="40" viewBox="0 0 259 40" fill="none" xmlns="http://www.w3.org/2000/svg">
<rect x="0.5" y="0.5" width="258" height="39" rx="19.5" stroke="#CCCCCC"/>
<path d="M26.877 20.9326H22.9395V25H20.8887V15.0469H27.3691V16.708H22.9395V19.2783H26.877V20.9326ZM32.4824 25C32.3913 24.8223 32.3252 24.6012 32.2842 24.3369C31.8057 24.8701 31.1836 25.1367 30.418 25.1367C29.6934 25.1367 29.0918 24.9271 28.6133 24.5078C28.1393 24.0885 27.9023 23.5599 27.9023 22.9219C27.9023 22.138 28.1917 21.5365 28.7705 21.1172C29.3538 20.6979 30.1947 20.486 31.293 20.4814H32.2021V20.0576C32.2021 19.7158 32.1133 19.4424 31.9355 19.2373C31.7624 19.0322 31.4867 18.9297 31.1084 18.9297C30.7757 18.9297 30.5137 19.0094 30.3223 19.1689C30.1354 19.3285 30.042 19.5472 30.042 19.8252H28.0664C28.0664 19.3968 28.1986 19.0003 28.4629 18.6357C28.7272 18.2712 29.1009 17.9863 29.584 17.7812C30.0671 17.5716 30.6094 17.4668 31.2109 17.4668C32.1224 17.4668 32.8447 17.6969 33.3779 18.1572C33.9157 18.613 34.1846 19.2555 34.1846 20.085V23.291C34.1891 23.9928 34.2871 24.5238 34.4785 24.8838V25H32.4824ZM30.8486 23.626C31.1403 23.626 31.4092 23.5622 31.6553 23.4346C31.9014 23.3024 32.0837 23.127 32.2021 22.9082V21.6367H31.4639C30.4749 21.6367 29.9486 21.9785 29.8848 22.6621L29.8779 22.7783C29.8779 23.0244 29.9645 23.2272 30.1377 23.3867C30.3109 23.5462 30.5479 23.626 30.8486 23.626ZM37.7871 25H35.8047V14.5H37.7871V25ZM42.8252 25.1367C41.7406 25.1367 40.8564 24.804 40.1729 24.1387C39.4938 23.4733 39.1543 22.5869 39.1543 21.4795V21.2881C39.1543 20.5452 39.2979 19.8822 39.585 19.2988C39.8721 18.7109 40.2777 18.2598 40.8018 17.9453C41.3304 17.6263 41.932 17.4668 42.6064 17.4668C43.6182 17.4668 44.4134 17.7858 44.9922 18.4238C45.5755 19.0618 45.8672 19.9665 45.8672 21.1377V21.9443H41.1572C41.221 22.4274 41.4124 22.8148 41.7314 23.1064C42.055 23.3981 42.4629 23.5439 42.9551 23.5439C43.7161 23.5439 44.3109 23.2682 44.7393 22.7168L45.71 23.8037C45.4137 24.223 45.0127 24.5511 44.5068 24.7881C44.001 25.0205 43.4404 25.1367 42.8252 25.1367ZM42.5996 19.0664C42.2077 19.0664 41.8887 19.1986 41.6426 19.4629C41.401 19.7272 41.2461 20.1055 41.1777 20.5977H43.9258V20.4404C43.9167 20.0029 43.7982 19.6657 43.5703 19.4287C43.3424 19.1872 43.0189 19.0664 42.5996 19.0664ZM53.5576 23.5439C53.9222 23.5439 54.2184 23.4437 54.4463 23.2432C54.6742 23.0426 54.7926 22.776 54.8018 22.4434H56.6543C56.6497 22.9447 56.513 23.4049 56.2441 23.8242C55.9753 24.2389 55.6061 24.5625 55.1367 24.7949C54.6719 25.0228 54.1569 25.1367 53.5918 25.1367C52.5345 25.1367 51.7005 24.8018 51.0898 24.1318C50.4792 23.4574 50.1738 22.5277 50.1738 21.3428V21.2129C50.1738 20.0736 50.4769 19.1644 51.083 18.4854C51.6891 17.8063 52.5208 17.4668 53.5781 17.4668C54.5033 17.4668 55.2438 17.7311 55.7998 18.2598C56.3604 18.7839 56.6452 19.4834 56.6543 20.3584H54.8018C54.7926 19.9756 54.6742 19.6657 54.4463 19.4287C54.2184 19.1872 53.9176 19.0664 53.5439 19.0664C53.0837 19.0664 52.735 19.235 52.498 19.5723C52.2656 19.9049 52.1494 20.4473 52.1494 21.1992V21.4043C52.1494 22.1654 52.2656 22.7122 52.498 23.0449C52.7305 23.3776 53.0837 23.5439 53.5576 23.5439ZM57.4746 21.2334C57.4746 20.4997 57.6159 19.8457 57.8984 19.2715C58.181 18.6973 58.5866 18.2529 59.1152 17.9385C59.6484 17.624 60.266 17.4668 60.9678 17.4668C61.9658 17.4668 62.7793 17.7721 63.4082 18.3828C64.0417 18.9935 64.3949 19.8229 64.4678 20.8711L64.4814 21.377C64.4814 22.5117 64.1647 23.4232 63.5312 24.1113C62.8978 24.7949 62.0479 25.1367 60.9814 25.1367C59.915 25.1367 59.0628 24.7949 58.4248 24.1113C57.7913 23.4277 57.4746 22.498 57.4746 21.3223V21.2334ZM59.4502 21.377C59.4502 22.0788 59.5824 22.6165 59.8467 22.9902C60.111 23.3594 60.4893 23.5439 60.9814 23.5439C61.46 23.5439 61.8337 23.3617 62.1025 22.9971C62.3714 22.6279 62.5059 22.04 62.5059 21.2334C62.5059 20.5452 62.3714 20.012 62.1025 19.6338C61.8337 19.2555 61.4554 19.0664 60.9678 19.0664C60.4847 19.0664 60.111 19.2555 59.8467 19.6338C59.5824 20.0075 59.4502 20.5885 59.4502 21.377ZM67.5166 17.6035L67.5781 18.458C68.1068 17.7972 68.8154 17.4668 69.7041 17.4668C70.488 17.4668 71.0713 17.6969 71.4541 18.1572C71.8369 18.6175 72.0329 19.3057 72.042 20.2217V25H70.0664V20.2695C70.0664 19.8503 69.9753 19.5472 69.793 19.3604C69.6107 19.1689 69.3076 19.0732 68.8838 19.0732C68.3278 19.0732 67.9108 19.3102 67.6328 19.7842V25H65.6572V17.6035H67.5166ZM73.2383 21.2334C73.2383 20.4997 73.3796 19.8457 73.6621 19.2715C73.9447 18.6973 74.3503 18.2529 74.8789 17.9385C75.4121 17.624 76.0296 17.4668 76.7314 17.4668C77.7295 17.4668 78.543 17.7721 79.1719 18.3828C79.8053 18.9935 80.1585 19.8229 80.2314 20.8711L80.2451 21.377C80.2451 22.5117 79.9284 23.4232 79.2949 24.1113C78.6615 24.7949 77.8115 25.1367 76.7451 25.1367C75.6787 25.1367 74.8265 24.7949 74.1885 24.1113C73.555 23.4277 73.2383 22.498 73.2383 21.3223V21.2334ZM75.2139 21.377C75.2139 22.0788 75.346 22.6165 75.6104 22.9902C75.8747 23.3594 76.2529 23.5439 76.7451 23.5439C77.2236 23.5439 77.5973 23.3617 77.8662 22.9971C78.1351 22.6279 78.2695 22.04 78.2695 21.2334C78.2695 20.5452 78.1351 20.012 77.8662 19.6338C77.5973 19.2555 77.2191 19.0664 76.7314 19.0664C76.2484 19.0664 75.8747 19.2555 75.6104 19.6338C75.346 20.0075 75.2139 20.5885 75.2139 21.377ZM85.4678 22.9561C85.4678 22.7145 85.347 22.5254 85.1055 22.3887C84.8685 22.2474 84.4857 22.1221 83.957 22.0127C82.1979 21.6436 81.3184 20.8962 81.3184 19.7705C81.3184 19.1143 81.5895 18.5674 82.1318 18.1299C82.6787 17.6878 83.3919 17.4668 84.2715 17.4668C85.2103 17.4668 85.96 17.6878 86.5205 18.1299C87.0856 18.5719 87.3682 19.1462 87.3682 19.8525H85.3926C85.3926 19.57 85.3014 19.3376 85.1191 19.1553C84.9368 18.9684 84.652 18.875 84.2646 18.875C83.932 18.875 83.6745 18.9502 83.4922 19.1006C83.3099 19.251 83.2188 19.4424 83.2188 19.6748C83.2188 19.8936 83.3213 20.0713 83.5264 20.208C83.736 20.3402 84.0869 20.4564 84.5791 20.5566C85.0713 20.6523 85.486 20.7617 85.8232 20.8848C86.8669 21.2676 87.3887 21.9307 87.3887 22.874C87.3887 23.5485 87.0993 24.0954 86.5205 24.5146C85.9417 24.9294 85.1943 25.1367 84.2783 25.1367C83.6585 25.1367 83.1071 25.0273 82.624 24.8086C82.1455 24.5853 81.7695 24.2822 81.4961 23.8994C81.2227 23.512 81.0859 23.0951 81.0859 22.6484H82.959C82.9772 22.9993 83.1071 23.2682 83.3486 23.4551C83.5902 23.6419 83.9137 23.7354 84.3193 23.7354C84.6976 23.7354 84.9824 23.6647 85.1738 23.5234C85.3698 23.3776 85.4678 23.1885 85.4678 22.9561ZM91.7432 23.5439C92.1077 23.5439 92.404 23.4437 92.6318 23.2432C92.8597 23.0426 92.9782 22.776 92.9873 22.4434H94.8398C94.8353 22.9447 94.6986 23.4049 94.4297 23.8242C94.1608 24.2389 93.7917 24.5625 93.3223 24.7949C92.8574 25.0228 92.3424 25.1367 91.7773 25.1367C90.7201 25.1367 89.8861 24.8018 89.2754 24.1318C88.6647 23.4574 88.3594 22.5277 88.3594 21.3428V21.2129C88.3594 20.0736 88.6624 19.1644 89.2686 18.4854C89.8747 17.8063 90.7064 17.4668 91.7637 17.4668C92.6888 17.4668 93.4294 17.7311 93.9854 18.2598C94.5459 18.7839 94.8307 19.4834 94.8398 20.3584H92.9873C92.9782 19.9756 92.8597 19.6657 92.6318 19.4287C92.404 19.1872 92.1032 19.0664 91.7295 19.0664C91.2692 19.0664 90.9206 19.235 90.6836 19.5723C90.4512 19.9049 90.335 20.4473 90.335 21.1992V21.4043C90.335 22.1654 90.4512 22.7122 90.6836 23.0449C90.916 23.3776 91.2692 23.5439 91.7432 23.5439ZM95.6602 21.2334C95.6602 20.4997 95.8014 19.8457 96.084 19.2715C96.3665 18.6973 96.7721 18.2529 97.3008 17.9385C97.834 17.624 98.4515 17.4668 99.1533 17.4668C100.151 17.4668 100.965 17.7721 101.594 18.3828C102.227 18.9935 102.58 19.8229 102.653 20.8711L102.667 21.377C102.667 22.5117 102.35 23.4232 101.717 24.1113C101.083 24.7949 100.233 25.1367 99.167 25.1367C98.1006 25.1367 97.2484 24.7949 96.6104 24.1113C95.9769 23.4277 95.6602 22.498 95.6602 21.3223V21.2334ZM97.6357 21.377C97.6357 22.0788 97.7679 22.6165 98.0322 22.9902C98.2965 23.3594 98.6748 23.5439 99.167 23.5439C99.6455 23.5439 100.019 23.3617 100.288 22.9971C100.557 22.6279 100.691 22.04 100.691 21.2334C100.691 20.5452 100.557 20.012 100.288 19.6338C100.019 19.2555 99.641 19.0664 99.1533 19.0664C98.6702 19.0664 98.2965 19.2555 98.0322 19.6338C97.7679 20.0075 97.6357 20.5885 97.6357 21.377ZM114.028 21.3701C114.028 22.5094 113.769 23.4232 113.249 24.1113C112.734 24.7949 112.037 25.1367 111.157 25.1367C110.41 25.1367 109.806 24.877 109.346 24.3574V27.8438H107.37V17.6035H109.202L109.271 18.3281C109.749 17.7539 110.373 17.4668 111.144 17.4668C112.055 17.4668 112.764 17.804 113.27 18.4785C113.775 19.153 114.028 20.0827 114.028 21.2676V21.3701ZM112.053 21.2266C112.053 20.5384 111.93 20.0075 111.684 19.6338C111.442 19.2601 111.089 19.0732 110.624 19.0732C110.004 19.0732 109.578 19.3102 109.346 19.7842V22.8125C109.587 23.3001 110.018 23.5439 110.638 23.5439C111.581 23.5439 112.053 22.7715 112.053 21.2266ZM118.663 25.1367C117.578 25.1367 116.694 24.804 116.011 24.1387C115.332 23.4733 114.992 22.5869 114.992 21.4795V21.2881C114.992 20.5452 115.136 19.8822 115.423 19.2988C115.71 18.7109 116.116 18.2598 116.64 17.9453C117.168 17.6263 117.77 17.4668 118.444 17.4668C119.456 17.4668 120.251 17.7858 120.83 18.4238C121.413 19.0618 121.705 19.9665 121.705 21.1377V21.9443H116.995C117.059 22.4274 117.25 22.8148 117.569 23.1064C117.893 23.3981 118.301 23.5439 118.793 23.5439C119.554 23.5439 120.149 23.2682 120.577 22.7168L121.548 23.8037C121.252 24.223 120.851 24.5511 120.345 24.7881C119.839 25.0205 119.278 25.1367 118.663 25.1367ZM118.438 19.0664C118.046 19.0664 117.727 19.1986 117.48 19.4629C117.239 19.7272 117.084 20.1055 117.016 20.5977H119.764V20.4404C119.755 20.0029 119.636 19.6657 119.408 19.4287C119.18 19.1872 118.857 19.0664 118.438 19.0664ZM124.918 25H122.936V14.5H124.918V25ZM126.244 21.2334C126.244 20.4997 126.385 19.8457 126.668 19.2715C126.951 18.6973 127.356 18.2529 127.885 17.9385C128.418 17.624 129.035 17.4668 129.737 17.4668C130.735 17.4668 131.549 17.7721 132.178 18.3828C132.811 18.9935 133.164 19.8229 133.237 20.8711L133.251 21.377C133.251 22.5117 132.934 23.4232 132.301 24.1113C131.667 24.7949 130.817 25.1367 129.751 25.1367C128.685 25.1367 127.832 24.7949 127.194 24.1113C126.561 23.4277 126.244 22.498 126.244 21.3223V21.2334ZM128.22 21.377C128.22 22.0788 128.352 22.6165 128.616 22.9902C128.881 23.3594 129.259 23.5439 129.751 23.5439C130.229 23.5439 130.603 23.3617 130.872 22.9971C131.141 22.6279 131.275 22.04 131.275 21.2334C131.275 20.5452 131.141 20.012 130.872 19.6338C130.603 19.2555 130.225 19.0664 129.737 19.0664C129.254 19.0664 128.881 19.2555 128.616 19.6338C128.352 20.0075 128.22 20.5885 128.22 21.377ZM145.897 21.6846C145.82 22.7555 145.424 23.5986 144.708 24.2139C143.997 24.8291 143.058 25.1367 141.892 25.1367C140.616 25.1367 139.611 24.7083 138.877 23.8516C138.148 22.9902 137.783 21.8099 137.783 20.3105V19.7021C137.783 18.7451 137.952 17.902 138.289 17.1729C138.626 16.4437 139.107 15.8854 139.731 15.498C140.36 15.1061 141.09 14.9102 141.919 14.9102C143.067 14.9102 143.993 15.2178 144.694 15.833C145.396 16.4482 145.802 17.3118 145.911 18.4238H143.86C143.81 17.7812 143.63 17.3164 143.32 17.0293C143.015 16.7376 142.548 16.5918 141.919 16.5918C141.235 16.5918 140.723 16.8379 140.381 17.3301C140.044 17.8177 139.87 18.5765 139.861 19.6064V20.3584C139.861 21.4339 140.023 22.2201 140.347 22.7168C140.675 23.2135 141.19 23.4619 141.892 23.4619C142.525 23.4619 142.997 23.3184 143.307 23.0312C143.621 22.7396 143.801 22.2907 143.847 21.6846H145.897ZM149.042 18.4102C149.566 17.7812 150.225 17.4668 151.018 17.4668C152.622 17.4668 153.435 18.3988 153.458 20.2627V25H151.482V20.3174C151.482 19.8936 151.391 19.5814 151.209 19.3809C151.027 19.1758 150.724 19.0732 150.3 19.0732C149.721 19.0732 149.302 19.2965 149.042 19.7432V25H147.066V14.5H149.042V18.4102ZM159.234 25C159.143 24.8223 159.077 24.6012 159.036 24.3369C158.558 24.8701 157.936 25.1367 157.17 25.1367C156.445 25.1367 155.844 24.9271 155.365 24.5078C154.891 24.0885 154.654 23.5599 154.654 22.9219C154.654 22.138 154.944 21.5365 155.522 21.1172C156.106 20.6979 156.947 20.486 158.045 20.4814H158.954V20.0576C158.954 19.7158 158.865 19.4424 158.688 19.2373C158.514 19.0322 158.239 18.9297 157.86 18.9297C157.528 18.9297 157.266 19.0094 157.074 19.1689C156.887 19.3285 156.794 19.5472 156.794 19.8252H154.818C154.818 19.3968 154.951 19.0003 155.215 18.6357C155.479 18.2712 155.853 17.9863 156.336 17.7812C156.819 17.5716 157.361 17.4668 157.963 17.4668C158.874 17.4668 159.597 17.6969 160.13 18.1572C160.668 18.613 160.937 19.2555 160.937 20.085V23.291C160.941 23.9928 161.039 24.5238 161.23 24.8838V25H159.234ZM157.601 23.626C157.892 23.626 158.161 23.5622 158.407 23.4346C158.653 23.3024 158.836 23.127 158.954 22.9082V21.6367H158.216C157.227 21.6367 156.701 21.9785 156.637 22.6621L156.63 22.7783C156.63 23.0244 156.716 23.2272 156.89 23.3867C157.063 23.5462 157.3 23.626 157.601 23.626ZM164.819 15.7852V17.6035H166.084V19.0527H164.819V22.7441C164.819 23.0176 164.872 23.2135 164.977 23.332C165.081 23.4505 165.282 23.5098 165.578 23.5098C165.797 23.5098 165.991 23.4938 166.159 23.4619V24.959C165.772 25.0775 165.373 25.1367 164.963 25.1367C163.577 25.1367 162.871 24.4372 162.844 23.0381V19.0527H161.764V17.6035H162.844V15.7852H164.819ZM178.977 20.249C178.977 21.2288 178.803 22.0879 178.457 22.8262C178.111 23.5645 177.614 24.1341 176.967 24.5352C176.324 24.9362 175.586 25.1367 174.752 25.1367C173.927 25.1367 173.191 24.9385 172.544 24.542C171.897 24.1455 171.396 23.5804 171.04 22.8467C170.685 22.1084 170.505 21.2607 170.5 20.3037V19.8115C170.5 18.8317 170.675 17.9704 171.026 17.2275C171.382 16.4801 171.881 15.9082 172.523 15.5117C173.171 15.1107 173.909 14.9102 174.738 14.9102C175.568 14.9102 176.304 15.1107 176.946 15.5117C177.593 15.9082 178.092 16.4801 178.443 17.2275C178.799 17.9704 178.977 18.8294 178.977 19.8047V20.249ZM176.898 19.7979C176.898 18.7542 176.712 17.9613 176.338 17.4189C175.964 16.8766 175.431 16.6055 174.738 16.6055C174.05 16.6055 173.519 16.8743 173.146 17.4121C172.772 17.9453 172.583 18.7292 172.578 19.7637V20.249C172.578 21.2653 172.765 22.0537 173.139 22.6143C173.512 23.1748 174.05 23.4551 174.752 23.4551C175.44 23.4551 175.969 23.1862 176.338 22.6484C176.707 22.1061 176.894 21.3177 176.898 20.2832V19.7979ZM182.155 17.6035L182.217 18.458C182.745 17.7972 183.454 17.4668 184.343 17.4668C185.127 17.4668 185.71 17.6969 186.093 18.1572C186.476 18.6175 186.672 19.3057 186.681 20.2217V25H184.705V20.2695C184.705 19.8503 184.614 19.5472 184.432 19.3604C184.249 19.1689 183.946 19.0732 183.522 19.0732C182.966 19.0732 182.549 19.3102 182.271 19.7842V25H180.296V17.6035H182.155ZM190.27 25H188.287V14.5H190.27V25ZM193.988 25H192.006V17.6035H193.988V25ZM191.89 15.6895C191.89 15.3932 191.988 15.1494 192.184 14.958C192.384 14.7666 192.655 14.6709 192.997 14.6709C193.334 14.6709 193.603 14.7666 193.804 14.958C194.004 15.1494 194.104 15.3932 194.104 15.6895C194.104 15.9902 194.002 16.2363 193.797 16.4277C193.596 16.6191 193.33 16.7148 192.997 16.7148C192.664 16.7148 192.396 16.6191 192.19 16.4277C191.99 16.2363 191.89 15.9902 191.89 15.6895ZM197.44 17.6035L197.502 18.458C198.031 17.7972 198.739 17.4668 199.628 17.4668C200.412 17.4668 200.995 17.6969 201.378 18.1572C201.761 18.6175 201.957 19.3057 201.966 20.2217V25H199.99V20.2695C199.99 19.8503 199.899 19.5472 199.717 19.3604C199.535 19.1689 199.231 19.0732 198.808 19.0732C198.252 19.0732 197.835 19.3102 197.557 19.7842V25H195.581V17.6035H197.44ZM206.874 25.1367C205.789 25.1367 204.905 24.804 204.222 24.1387C203.543 23.4733 203.203 22.5869 203.203 21.4795V21.2881C203.203 20.5452 203.347 19.8822 203.634 19.2988C203.921 18.7109 204.326 18.2598 204.851 17.9453C205.379 17.6263 205.981 17.4668 206.655 17.4668C207.667 17.4668 208.462 17.7858 209.041 18.4238C209.624 19.0618 209.916 19.9665 209.916 21.1377V21.9443H205.206C205.27 22.4274 205.461 22.8148 205.78 23.1064C206.104 23.3981 206.512 23.5439 207.004 23.5439C207.765 23.5439 208.36 23.2682 208.788 22.7168L209.759 23.8037C209.463 24.223 209.062 24.5511 208.556 24.7881C208.05 25.0205 207.489 25.1367 206.874 25.1367ZM206.648 19.0664C206.257 19.0664 205.938 19.1986 205.691 19.4629C205.45 19.7272 205.295 20.1055 205.227 20.5977H207.975V20.4404C207.965 20.0029 207.847 19.6657 207.619 19.4287C207.391 19.1872 207.068 19.0664 206.648 19.0664Z" fill="#333333"/>
<path d="M240.259 24.5657C241.57 23.5563 242.313 22.2109 242.313 20.8147C242.313 19.331 241.508 17.9433 240.048 16.9071C238.627 15.899 236.745 15.3438 234.75 15.3438C232.755 15.3438 230.873 15.899 229.452 16.9072C227.992 17.9433 227.188 19.331 227.188 20.8147C227.188 22.2985 227.992 23.6862 229.452 24.7224C230.873 25.7306 232.755 26.2858 234.75 26.2858C235.016 26.2858 235.283 26.2757 235.549 26.2555L236.002 26.5947C237.563 27.763 239.559 28.4062 241.625 28.4062H242.312V27.1424L242.111 26.9686C241.317 26.2805 240.687 25.464 240.259 24.5657ZM236.902 25.6973L235.993 25.0166L235.69 25.0487C235.378 25.0817 235.064 25.0982 234.75 25.0982C231.338 25.0982 228.562 23.1766 228.562 20.8147C228.562 18.4528 231.338 16.5312 234.75 16.5312C238.162 16.5312 240.938 18.4528 240.938 20.8147C240.938 21.9915 240.258 23.0901 239.023 23.9081L238.627 24.1705L238.81 24.6171C239.185 25.5293 239.735 26.3801 240.438 27.1338C239.129 26.945 237.905 26.448 236.902 25.6973Z" fill="black" fill-opacity="0.6"/>
<path d="M223.586 21.7813C224.23 21.0778 224.735 20.2877 225.082 19.4426L225.263 18.9982L224.867 18.736C223.704 17.9646 223.062 16.9294 223.062 15.8209C223.062 13.5934 225.684 11.7812 228.906 11.7812C231.277 11.7812 233.322 12.7621 234.238 14.1674C234.408 14.1603 234.578 14.1562 234.75 14.1562C235.095 14.1562 235.436 14.1707 235.774 14.1996C235.42 13.4078 234.806 12.6851 233.961 12.0858C232.605 11.1236 230.81 10.5938 228.906 10.5938C227.003 10.5938 225.208 11.1236 223.852 12.0858C222.456 13.0758 221.688 14.4023 221.688 15.8209C221.688 17.1494 222.39 18.4295 223.632 19.3924C223.227 20.2346 222.635 21.0002 221.889 21.646L221.688 21.8199V23.0625H222.375C223.646 23.0624 224.9 22.8067 226.037 22.3157C225.913 21.9075 225.84 21.4889 225.819 21.0671C225.129 21.4165 224.373 21.6582 223.586 21.7813Z" fill="black" fill-opacity="0.6"/>
</svg>
