<svg width="150" height="38" viewBox="0 0 150 38" fill="none" xmlns="http://www.w3.org/2000/svg">
<path d="M127.881 19.1003L128.271 32.8688C128.304 34.0556 129.828 34.5071 130.497 33.5287L138.858 21.3152L127.881 19.1003Z" fill="#97e70e"/>
<path d="M118.896 9.63935L138.858 21.3152L149.854 5.25315C150.252 4.67185 149.782 3.88973 149.084 3.97278L119.332 7.52703C118.251 7.65537 117.954 9.08975 118.896 9.63935Z" fill="#0093FF"/>
<path d="M4.34491 16.7282C4.70873 16.6859 5.02746 16.9713 5.02746 17.3382V28.4132C5.02746 29.1304 5.19885 30.3654 5.59876 31.0539C6.2272 32.3449 7.99823 33.207 10.9134 33.207C13.8571 33.207 15.5996 32.3464 16.2566 31.0539C16.6565 30.3654 16.8279 29.1319 16.8279 28.4132V17.7851C16.8279 17.4741 17.0609 17.2114 17.3691 17.1751L21.1457 16.7297C21.5095 16.6875 21.8298 16.9728 21.8298 17.3397V29.5048C21.8298 31.2261 21.487 33.0923 20.4872 34.2111C18.659 36.2781 15.4297 37.3109 10.9149 37.3109C6.42865 37.3109 3.17073 36.2781 1.37113 34.2111C0.371348 33.0923 0 31.2261 0 29.5048V17.7866C0 17.4741 0.233032 17.2129 0.541235 17.1767L4.34491 16.7282Z" fill="#0093FF"/>
<path d="M53.5641 17.1751L57.3692 16.7282C57.7331 16.6859 58.0518 16.9713 58.0518 17.3382V36.1211C58.0518 36.4608 57.7782 36.7356 57.4399 36.7356H53.6347C53.2965 36.7356 53.0228 36.4608 53.0228 36.1211V17.7851C53.0228 17.4741 53.2544 17.2114 53.5641 17.1751Z" fill="#0093FF"/>
<path d="M63.1875 16.6483H79.9297C80.4228 16.6483 80.713 17.2024 80.4348 17.61L78.8096 19.9881C78.5811 20.3218 78.2038 20.5211 77.8008 20.5211H67.549V24.8258H75.905C76.2433 24.8258 76.5169 25.1006 76.5169 25.4403V27.9135C76.5169 28.2532 76.2433 28.528 75.905 28.528H67.549V36.1211C67.549 36.4609 67.2753 36.7357 66.9371 36.7357H63.1875C62.8493 36.7357 62.5756 36.4609 62.5756 36.1227V17.2643C62.5741 16.9231 62.8493 16.6483 63.1875 16.6483Z" fill="#0093FF"/>
<path d="M83.6687 16.6483H102.296C102.789 16.6483 103.079 17.2039 102.8 17.6116L101.169 19.9911C100.94 20.3248 100.563 20.5226 100.16 20.5226H95.194V36.1211C95.194 36.4609 94.9203 36.7357 94.5821 36.7357H90.7769C90.4386 36.7357 90.165 36.4609 90.165 36.1211V20.5226H83.6672C83.3289 20.5226 83.0553 20.2478 83.0553 19.9081V17.2628C83.0568 16.9231 83.3319 16.6483 83.6687 16.6483Z" fill="#0093FF"/>
<path d="M120.779 20.3353C120.48 20.7717 119.939 20.9604 119.431 20.817C118.16 20.4576 116.558 20.1481 114.623 20.1481C112.452 20.1481 110.765 20.5211 109.594 21.2382C108.08 22.1562 107.107 23.793 107.107 26.633C107.107 31.4541 109.937 33.1753 114.68 33.1753C117.553 33.1753 119.515 32.5503 120.958 32.0278C121.268 31.9161 121.608 32.0701 121.731 32.3766L122.803 35.0385C122.928 35.3481 122.786 35.6999 122.481 35.8327C121.127 36.4231 118.638 37.3094 114.623 37.3094C106.993 37.3094 102.221 34.1235 102.221 26.778C102.221 21.9569 104.194 18.8859 107.221 17.3941C108.992 16.5048 111.336 16.0745 114.309 16.0745C117.345 16.0745 119.571 16.5863 121.862 17.3805C122.247 17.5134 122.4 17.9769 122.17 18.3136L120.779 20.3353Z" fill="#0093FF"/>
<path d="M45.2126 17.308C43.5828 16.4761 41.8404 16.0745 39.1838 16.0745C38.7493 16.0745 38.3269 16.1016 37.9164 16.1484L37.8834 16.153C37.8758 16.1545 37.8668 16.1545 37.8578 16.156L26.8888 17.4651C26.5836 17.5013 26.3536 17.761 26.3536 18.0705V36.1226C26.3536 36.4624 26.6272 36.7371 26.9655 36.7371H30.7706C31.1089 36.7371 31.3825 36.4624 31.3825 36.1226L31.3795 20.5528C31.3795 20.5528 34.866 20.2145 37.1542 20.127C37.4248 20.1134 37.1542 20.133 37.1542 20.133C37.4233 20.1089 37.6909 20.0938 37.954 20.0938C39.3552 20.0938 40.6406 20.2946 41.6119 20.7536C42.6116 21.2986 43.4987 22.4748 43.4987 24.0829V36.1241C43.4987 36.4639 43.7723 36.7387 44.1105 36.7387H47.8872C48.2254 36.7387 48.4991 36.4639 48.4991 36.1241V22.964C48.4991 19.9473 46.8994 18.226 45.2126 17.308Z" fill="#0093FF"/>
<path d="M3.53471 5.39289H1.41649V9.05657H0.22113V0H3.20644C4.22219 0 5.00259 0.23222 5.54763 0.69666C6.09679 1.1611 6.37137 1.83702 6.37137 2.72444C6.37137 3.2884 6.2186 3.77979 5.91305 4.19862C5.61163 4.61744 5.19046 4.93052 4.64955 5.13786L6.76776 8.98193V9.05657H5.49188L3.53471 5.39289ZM1.41649 4.41632H3.24361C3.83406 4.41632 4.30271 4.26289 4.64955 3.95603C5.00052 3.64917 5.17601 3.23864 5.17601 2.72444C5.17601 2.16462 5.00878 1.73543 4.67433 1.43686C4.344 1.13829 3.86503 0.986934 3.23741 0.982787H1.41649V4.41632Z" fill="#0093FF"/>
<path d="M13.141 4.8704H9.23282V8.08001H13.7727V9.05657H8.04364V0H13.7108V0.982787H9.23282V3.89383H13.141V4.8704Z" fill="#0093FF"/>
<path d="M15.253 9.05657V0H17.7986C18.5831 0 19.2768 0.174165 19.8796 0.522495C20.4825 0.870824 20.947 1.36636 21.2732 2.00912C21.6035 2.65187 21.7707 3.38999 21.7749 4.2235V4.80197C21.7749 5.65621 21.6097 6.40471 21.2794 7.04746C20.9532 7.69021 20.4845 8.18367 19.8734 8.52786C19.2664 8.87204 18.5583 9.04828 17.749 9.05657H15.253ZM16.4422 0.982787V8.08001H17.6933C18.6099 8.08001 19.3222 7.79388 19.8301 7.22162C20.3421 6.64937 20.5981 5.83452 20.5981 4.77709V4.24838C20.5981 3.21998 20.3565 2.42172 19.8734 1.85361C19.3944 1.28136 18.7131 0.991081 17.8295 0.982787H16.4422Z" fill="#0093FF"/>
<path d="M28.6745 4.8704H24.7664V8.08001H29.3063V9.05657H23.5772V0H29.2443V0.982787H24.7664V3.89383H28.6745V4.8704Z" fill="#0093FF"/>
</svg>
