<svg width="14" height="14" viewBox="0 0 14 14" fill="none" xmlns="http://www.w3.org/2000/svg">
<path d="M7.99996 0C7.73475 0 7.48039 0.105357 7.29285 0.292893C7.10532 0.48043 6.99996 0.734784 6.99996 1C6.99996 1.26522 7.10532 1.51957 7.29285 1.70711C7.48039 1.89464 7.73475 2 7.99996 2H10.586L4.29296 8.293C4.19745 8.38525 4.12127 8.49559 4.06886 8.6176C4.01645 8.7396 3.98886 8.87082 3.98771 9.0036C3.98655 9.13638 4.01186 9.26806 4.06214 9.39095C4.11242 9.51385 4.18667 9.6255 4.28056 9.71939C4.37446 9.81329 4.48611 9.88754 4.60901 9.93782C4.7319 9.9881 4.86358 10.0134 4.99636 10.0123C5.12914 10.0111 5.26036 9.98351 5.38236 9.9311C5.50437 9.87869 5.61471 9.80251 5.70696 9.707L12 3.414V6C12 6.26522 12.1053 6.51957 12.2929 6.70711C12.4804 6.89464 12.7347 7 13 7C13.2652 7 13.5195 6.89464 13.7071 6.70711C13.8946 6.51957 14 6.26522 14 6V1C14 0.734784 13.8946 0.48043 13.7071 0.292893C13.5195 0.105357 13.2652 0 13 0H7.99996Z" fill="#0093FF"/>
<path d="M2 2C1.46957 2 0.96086 2.21071 0.585787 2.58579C0.210714 2.96086 0 3.46957 0 4V12C0 12.5304 0.210714 13.0391 0.585787 13.4142C0.96086 13.7893 1.46957 14 2 14H10C10.5304 14 11.0391 13.7893 11.4142 13.4142C11.7893 13.0391 12 12.5304 12 12V9C12 8.73478 11.8947 8.48043 11.7071 8.29289C11.5196 8.10536 11.2652 8 11 8C10.7348 8 10.4804 8.10536 10.2929 8.29289C10.1054 8.48043 10 8.73478 10 9V12H2V4H5C5.26522 4 5.51957 3.89464 5.70711 3.70711C5.89465 3.51957 6 3.26522 6 3C6 2.73478 5.89465 2.48043 5.70711 2.29289C5.51957 2.10536 5.26522 2 5 2H2Z" fill="#0093FF"/>
</svg>
