<svg width="330" height="100" viewBox="0 0 330 100" fill="none" xmlns="http://www.w3.org/2000/svg">
<g filter="url(#filter0_b_60_96)">
<rect width="330" height="100" rx="16" fill="black" fill-opacity="0.2"/>
<rect x="0.5" y="0.5" width="329" height="99" rx="15.5" stroke="#0093FF"/>
</g>
<path d="M127.722 40.7588L131.378 30.2031H133.224L128.478 43H126.983L122.246 30.2031H124.083L127.722 40.7588ZM137.891 43.1758C136.602 43.1758 135.553 42.7539 134.744 41.9102C133.936 41.0605 133.532 39.9268 133.532 38.5088V38.21C133.532 37.2666 133.71 36.4258 134.068 35.6875C134.431 34.9434 134.935 34.3633 135.579 33.9473C136.23 33.5254 136.933 33.3145 137.689 33.3145C138.925 33.3145 139.886 33.7217 140.572 34.5361C141.257 35.3506 141.6 36.5166 141.6 38.0342V38.7109H135.158C135.181 39.6484 135.453 40.4072 135.975 40.9873C136.502 41.5615 137.17 41.8486 137.979 41.8486C138.553 41.8486 139.039 41.7314 139.438 41.4971C139.836 41.2627 140.185 40.9521 140.484 40.5654L141.477 41.3389C140.68 42.5635 139.485 43.1758 137.891 43.1758ZM137.689 34.6504C137.033 34.6504 136.482 34.8906 136.036 35.3711C135.591 35.8457 135.316 36.5137 135.21 37.375H139.974V37.252C139.927 36.4258 139.704 35.7871 139.306 35.3359C138.908 34.8789 138.369 34.6504 137.689 34.6504ZM144.808 33.4902V44.0986C144.808 45.9268 143.979 46.8408 142.321 46.8408C141.964 46.8408 141.633 46.7881 141.328 46.6826V45.3818C141.515 45.4287 141.761 45.4521 142.066 45.4521C142.429 45.4521 142.705 45.3525 142.892 45.1533C143.086 44.96 143.182 44.6201 143.182 44.1338V33.4902H144.808ZM143.015 30.9678C143.015 30.71 143.094 30.4902 143.253 30.3086C143.417 30.1211 143.654 30.0273 143.965 30.0273C144.281 30.0273 144.521 30.1182 144.685 30.2998C144.849 30.4814 144.931 30.7041 144.931 30.9678C144.931 31.2314 144.849 31.4512 144.685 31.627C144.521 31.8027 144.281 31.8906 143.965 31.8906C143.648 31.8906 143.411 31.8027 143.253 31.627C143.094 31.4512 143.015 31.2314 143.015 30.9678ZM152.947 43C152.854 42.8125 152.777 42.4785 152.719 41.998C151.963 42.7832 151.061 43.1758 150.012 43.1758C149.074 43.1758 148.304 42.9121 147.7 42.3848C147.103 41.8516 146.804 41.1777 146.804 40.3633C146.804 39.373 147.179 38.6055 147.929 38.0605C148.685 37.5098 149.745 37.2344 151.11 37.2344H152.692V36.4873C152.692 35.9189 152.523 35.4678 152.183 35.1338C151.843 34.7939 151.342 34.624 150.68 34.624C150.1 34.624 149.613 34.7705 149.221 35.0635C148.828 35.3564 148.632 35.7109 148.632 36.127H146.997C146.997 35.6523 147.164 35.1953 147.498 34.7559C147.838 34.3105 148.295 33.959 148.869 33.7012C149.449 33.4434 150.085 33.3145 150.776 33.3145C151.872 33.3145 152.731 33.5898 153.352 34.1406C153.973 34.6855 154.295 35.4385 154.318 36.3994V40.7764C154.318 41.6494 154.43 42.3438 154.652 42.8594V43H152.947ZM150.249 41.7607C150.759 41.7607 151.242 41.6289 151.699 41.3652C152.156 41.1016 152.487 40.7588 152.692 40.3369V38.3857H151.418C149.426 38.3857 148.43 38.9688 148.43 40.1348C148.43 40.6445 148.6 41.043 148.94 41.3301C149.279 41.6172 149.716 41.7607 150.249 41.7607ZM160.181 38.1572C160.181 37.2256 160.363 36.3877 160.726 35.6436C161.096 34.8994 161.605 34.3252 162.256 33.9209C162.912 33.5166 163.659 33.3145 164.497 33.3145C165.792 33.3145 166.838 33.7627 167.635 34.6592C168.437 35.5557 168.839 36.748 168.839 38.2363V38.3506C168.839 39.2764 168.66 40.1084 168.303 40.8467C167.951 41.5791 167.444 42.1504 166.782 42.5605C166.126 42.9707 165.37 43.1758 164.514 43.1758C163.225 43.1758 162.179 42.7275 161.377 41.8311C160.58 40.9346 160.181 39.748 160.181 38.2715V38.1572ZM161.816 38.3506C161.816 39.4053 162.059 40.252 162.546 40.8906C163.038 41.5293 163.694 41.8486 164.514 41.8486C165.341 41.8486 165.997 41.5264 166.483 40.8818C166.97 40.2314 167.213 39.3232 167.213 38.1572C167.213 37.1143 166.964 36.2705 166.466 35.626C165.973 34.9756 165.317 34.6504 164.497 34.6504C163.694 34.6504 163.047 34.9697 162.554 35.6084C162.062 36.2471 161.816 37.1611 161.816 38.3506ZM177.76 40.7939L180.116 33.4902H181.777L178.367 43H177.127L173.682 33.4902H175.343L177.76 40.7939ZM184.748 43H183.113V33.4902H184.748V43ZM184.766 29.5088H186.734L184.379 32.0928H183.069L184.766 29.5088ZM186.673 38.166C186.673 36.707 187.019 35.5352 187.71 34.6504C188.402 33.7598 189.307 33.3145 190.426 33.3145C191.539 33.3145 192.421 33.6953 193.072 34.457V29.5H194.697V43H193.203L193.124 41.9805C192.474 42.7773 191.569 43.1758 190.408 43.1758C189.307 43.1758 188.407 42.7246 187.71 41.8223C187.019 40.9199 186.673 39.7422 186.673 38.2891V38.166ZM188.299 38.3506C188.299 39.4287 188.522 40.2725 188.967 40.8818C189.412 41.4912 190.028 41.7959 190.813 41.7959C191.844 41.7959 192.597 41.333 193.072 40.4072V36.0391C192.585 35.1426 191.838 34.6943 190.83 34.6943C190.033 34.6943 189.412 35.002 188.967 35.6172C188.522 36.2324 188.299 37.1436 188.299 38.3506ZM200.815 43.1758C199.526 43.1758 198.477 42.7539 197.669 41.9102C196.86 41.0605 196.456 39.9268 196.456 38.5088V38.21C196.456 37.2666 196.634 36.4258 196.992 35.6875C197.355 34.9434 197.859 34.3633 198.504 33.9473C199.154 33.5254 199.857 33.3145 200.613 33.3145C201.849 33.3145 202.81 33.7217 203.496 34.5361C204.181 35.3506 204.524 36.5166 204.524 38.0342V38.7109H198.082C198.105 39.6484 198.378 40.4072 198.899 40.9873C199.426 41.5615 200.094 41.8486 200.903 41.8486C201.477 41.8486 201.963 41.7314 202.362 41.4971C202.76 41.2627 203.109 40.9521 203.408 40.5654L204.401 41.3389C203.604 42.5635 202.409 43.1758 200.815 43.1758ZM200.613 34.6504C199.957 34.6504 199.406 34.8906 198.961 35.3711C198.515 35.8457 198.24 36.5137 198.134 37.375H202.898V37.252C202.851 36.4258 202.629 35.7871 202.23 35.3359C201.832 34.8789 201.293 34.6504 200.613 34.6504ZM205.623 38.1572C205.623 37.2256 205.805 36.3877 206.168 35.6436C206.537 34.8994 207.047 34.3252 207.697 33.9209C208.353 33.5166 209.101 33.3145 209.938 33.3145C211.233 33.3145 212.279 33.7627 213.076 34.6592C213.879 35.5557 214.28 36.748 214.28 38.2363V38.3506C214.28 39.2764 214.102 40.1084 213.744 40.8467C213.393 41.5791 212.886 42.1504 212.224 42.5605C211.567 42.9707 210.811 43.1758 209.956 43.1758C208.667 43.1758 207.621 42.7275 206.818 41.8311C206.021 40.9346 205.623 39.748 205.623 38.2715V38.1572ZM207.258 38.3506C207.258 39.4053 207.501 40.252 207.987 40.8906C208.479 41.5293 209.136 41.8486 209.956 41.8486C210.782 41.8486 211.438 41.5264 211.925 40.8818C212.411 40.2314 212.654 39.3232 212.654 38.1572C212.654 37.1143 212.405 36.2705 211.907 35.626C211.415 34.9756 210.759 34.6504 209.938 34.6504C209.136 34.6504 208.488 34.9697 207.996 35.6084C207.504 36.2471 207.258 37.1611 207.258 38.3506ZM224.01 43.1758C222.721 43.1758 221.673 42.7539 220.864 41.9102C220.055 41.0605 219.651 39.9268 219.651 38.5088V38.21C219.651 37.2666 219.83 36.4258 220.187 35.6875C220.55 34.9434 221.054 34.3633 221.699 33.9473C222.349 33.5254 223.052 33.3145 223.808 33.3145C225.045 33.3145 226.006 33.7217 226.691 34.5361C227.377 35.3506 227.719 36.5166 227.719 38.0342V38.7109H221.277C221.3 39.6484 221.573 40.4072 222.094 40.9873C222.622 41.5615 223.29 41.8486 224.098 41.8486C224.673 41.8486 225.159 41.7314 225.557 41.4971C225.956 41.2627 226.304 40.9521 226.603 40.5654L227.596 41.3389C226.799 42.5635 225.604 43.1758 224.01 43.1758ZM223.808 34.6504C223.152 34.6504 222.601 34.8906 222.156 35.3711C221.711 35.8457 221.435 36.5137 221.33 37.375H226.093V37.252C226.047 36.4258 225.824 35.7871 225.425 35.3359C225.027 34.8789 224.488 34.6504 223.808 34.6504ZM237.3 43.1758C236.011 43.1758 234.962 42.7539 234.154 41.9102C233.345 41.0605 232.941 39.9268 232.941 38.5088V38.21C232.941 37.2666 233.12 36.4258 233.477 35.6875C233.84 34.9434 234.344 34.3633 234.989 33.9473C235.639 33.5254 236.342 33.3145 237.098 33.3145C238.334 33.3145 239.295 33.7217 239.981 34.5361C240.666 35.3506 241.009 36.5166 241.009 38.0342V38.7109H234.567C234.59 39.6484 234.863 40.4072 235.384 40.9873C235.912 41.5615 236.579 41.8486 237.388 41.8486C237.962 41.8486 238.449 41.7314 238.847 41.4971C239.246 41.2627 239.594 40.9521 239.893 40.5654L240.886 41.3389C240.089 42.5635 238.894 43.1758 237.3 43.1758ZM237.098 34.6504C236.442 34.6504 235.891 34.8906 235.446 35.3711C235 35.8457 234.725 36.5137 234.62 37.375H239.383V37.252C239.336 36.4258 239.114 35.7871 238.715 35.3359C238.317 34.8789 237.778 34.6504 237.098 34.6504ZM244.077 33.4902L244.13 34.6855C244.856 33.7715 245.805 33.3145 246.977 33.3145C248.987 33.3145 250.001 34.4482 250.018 36.7158V43H248.392V36.707C248.386 36.0215 248.228 35.5146 247.918 35.1865C247.613 34.8584 247.136 34.6943 246.485 34.6943C245.958 34.6943 245.495 34.835 245.096 35.1162C244.698 35.3975 244.387 35.7666 244.165 36.2236V43H242.539V33.4902H244.077ZM254.317 31.1875V33.4902H256.092V34.7471H254.317V40.6445C254.317 41.0254 254.396 41.3125 254.554 41.5059C254.712 41.6934 254.982 41.7871 255.362 41.7871C255.55 41.7871 255.808 41.752 256.136 41.6816V43C255.708 43.1172 255.292 43.1758 254.888 43.1758C254.161 43.1758 253.613 42.9561 253.244 42.5166C252.875 42.0771 252.691 41.4531 252.691 40.6445V34.7471H250.959V33.4902H252.691V31.1875H254.317ZM261.585 43.1758C260.296 43.1758 259.248 42.7539 258.439 41.9102C257.63 41.0605 257.226 39.9268 257.226 38.5088V38.21C257.226 37.2666 257.405 36.4258 257.762 35.6875C258.125 34.9434 258.629 34.3633 259.274 33.9473C259.924 33.5254 260.627 33.3145 261.383 33.3145C262.62 33.3145 263.581 33.7217 264.266 34.5361C264.952 35.3506 265.294 36.5166 265.294 38.0342V38.7109H258.852C258.875 39.6484 259.148 40.4072 259.669 40.9873C260.197 41.5615 260.865 41.8486 261.673 41.8486C262.248 41.8486 262.734 41.7314 263.132 41.4971C263.531 41.2627 263.879 40.9521 264.178 40.5654L265.171 41.3389C264.374 42.5635 263.179 43.1758 261.585 43.1758ZM261.383 34.6504C260.727 34.6504 260.176 34.8906 259.731 35.3711C259.286 35.8457 259.01 36.5137 258.905 37.375H263.668V37.252C263.622 36.4258 263.399 35.7871 263 35.3359C262.602 34.8789 262.063 34.6504 261.383 34.6504ZM268.362 33.4902L268.415 34.6855C269.141 33.7715 270.091 33.3145 271.263 33.3145C273.272 33.3145 274.286 34.4482 274.304 36.7158V43H272.678V36.707C272.672 36.0215 272.514 35.5146 272.203 35.1865C271.898 34.8584 271.421 34.6943 270.77 34.6943C270.243 34.6943 269.78 34.835 269.382 35.1162C268.983 35.3975 268.673 35.7666 268.45 36.2236V43H266.824V33.4902H268.362ZM276 38.166C276 36.707 276.346 35.5352 277.037 34.6504C277.729 33.7598 278.634 33.3145 279.753 33.3145C280.866 33.3145 281.748 33.6953 282.399 34.457V29.5H284.025V43H282.53L282.451 41.9805C281.801 42.7773 280.896 43.1758 279.736 43.1758C278.634 43.1758 277.735 42.7246 277.037 41.8223C276.346 40.9199 276 39.7422 276 38.2891V38.166ZM277.626 38.3506C277.626 39.4287 277.849 40.2725 278.294 40.8818C278.739 41.4912 279.355 41.7959 280.14 41.7959C281.171 41.7959 281.924 41.333 282.399 40.4072V36.0391C281.912 35.1426 281.165 34.6943 280.157 34.6943C279.361 34.6943 278.739 35.002 278.294 35.6172C277.849 36.2324 277.626 37.1436 277.626 38.3506ZM292.067 43C291.973 42.8125 291.897 42.4785 291.838 41.998C291.083 42.7832 290.18 43.1758 289.131 43.1758C288.194 43.1758 287.423 42.9121 286.82 42.3848C286.222 41.8516 285.923 41.1777 285.923 40.3633C285.923 39.373 286.298 38.6055 287.048 38.0605C287.804 37.5098 288.865 37.2344 290.23 37.2344H291.812V36.4873C291.812 35.9189 291.642 35.4678 291.302 35.1338C290.962 34.7939 290.461 34.624 289.799 34.624C289.219 34.624 288.733 34.7705 288.34 35.0635C287.948 35.3564 287.752 35.7109 287.752 36.127H286.117C286.117 35.6523 286.284 35.1953 286.618 34.7559C286.958 34.3105 287.415 33.959 287.989 33.7012C288.569 33.4434 289.205 33.3145 289.896 33.3145C290.992 33.3145 291.85 33.5898 292.471 34.1406C293.092 34.6855 293.415 35.4385 293.438 36.3994V40.7764C293.438 41.6494 293.549 42.3438 293.772 42.8594V43H292.067ZM289.369 41.7607C289.878 41.7607 290.362 41.6289 290.819 41.3652C291.276 41.1016 291.607 40.7588 291.812 40.3369V38.3857H290.538C288.545 38.3857 287.549 38.9688 287.549 40.1348C287.549 40.6445 287.719 41.043 288.059 41.3301C288.399 41.6172 288.836 41.7607 289.369 41.7607ZM129.102 70C129.008 69.8125 128.932 69.4785 128.873 68.998C128.117 69.7832 127.215 70.1758 126.166 70.1758C125.229 70.1758 124.458 69.9121 123.854 69.3848C123.257 68.8516 122.958 68.1777 122.958 67.3633C122.958 66.373 123.333 65.6055 124.083 65.0605C124.839 64.5098 125.899 64.2344 127.265 64.2344H128.847V63.4873C128.847 62.9189 128.677 62.4678 128.337 62.1338C127.997 61.7939 127.496 61.624 126.834 61.624C126.254 61.624 125.768 61.7705 125.375 62.0635C124.982 62.3564 124.786 62.7109 124.786 63.127H123.151C123.151 62.6523 123.318 62.1953 123.652 61.7559C123.992 61.3105 124.449 60.959 125.023 60.7012C125.604 60.4434 126.239 60.3145 126.931 60.3145C128.026 60.3145 128.885 60.5898 129.506 61.1406C130.127 61.6855 130.449 62.4385 130.473 63.3994V67.7764C130.473 68.6494 130.584 69.3438 130.807 69.8594V70H129.102ZM126.403 68.7607C126.913 68.7607 127.396 68.6289 127.854 68.3652C128.311 68.1016 128.642 67.7588 128.847 67.3369V65.3857H127.572C125.58 65.3857 124.584 65.9688 124.584 67.1348C124.584 67.6445 124.754 68.043 125.094 68.3301C125.434 68.6172 125.87 68.7607 126.403 68.7607ZM141.715 64.8232H138.709V70H137.012V57.2031H141.249C142.69 57.2031 143.798 57.5312 144.571 58.1875C145.35 58.8438 145.74 59.7988 145.74 61.0527C145.74 61.8496 145.523 62.5439 145.09 63.1357C144.662 63.7275 144.064 64.1699 143.297 64.4629L146.302 69.8945V70H144.492L141.715 64.8232ZM138.709 63.4434H141.301C142.139 63.4434 142.804 63.2266 143.297 62.793C143.795 62.3594 144.044 61.7793 144.044 61.0527C144.044 60.2617 143.806 59.6553 143.332 59.2334C142.863 58.8115 142.183 58.5977 141.293 58.5918H138.709V63.4434ZM151.444 70.1758C150.155 70.1758 149.107 69.7539 148.298 68.9102C147.489 68.0605 147.085 66.9268 147.085 65.5088V65.21C147.085 64.2666 147.264 63.4258 147.621 62.6875C147.984 61.9434 148.488 61.3633 149.133 60.9473C149.783 60.5254 150.486 60.3145 151.242 60.3145C152.479 60.3145 153.44 60.7217 154.125 61.5361C154.811 62.3506 155.153 63.5166 155.153 65.0342V65.7109H148.711C148.734 66.6484 149.007 67.4072 149.528 67.9873C150.056 68.5615 150.724 68.8486 151.532 68.8486C152.107 68.8486 152.593 68.7314 152.991 68.4971C153.39 68.2627 153.738 67.9521 154.037 67.5654L155.03 68.3389C154.233 69.5635 153.038 70.1758 151.444 70.1758ZM151.242 61.6504C150.586 61.6504 150.035 61.8906 149.59 62.3711C149.145 62.8457 148.869 63.5137 148.764 64.375H153.527V64.252C153.481 63.4258 153.258 62.7871 152.859 62.3359C152.461 61.8789 151.922 61.6504 151.242 61.6504ZM158.212 60.4902L158.256 61.5449C158.954 60.7246 159.894 60.3145 161.078 60.3145C162.408 60.3145 163.313 60.8242 163.793 61.8438C164.11 61.3867 164.52 61.0176 165.024 60.7363C165.534 60.4551 166.134 60.3145 166.826 60.3145C168.912 60.3145 169.972 61.4189 170.007 63.6279V70H168.381V63.7246C168.381 63.0449 168.226 62.5381 167.915 62.2041C167.605 61.8643 167.083 61.6943 166.351 61.6943C165.748 61.6943 165.247 61.876 164.848 62.2393C164.45 62.5967 164.218 63.0801 164.154 63.6895V70H162.519V63.7686C162.519 62.3857 161.842 61.6943 160.489 61.6943C159.422 61.6943 158.693 62.1484 158.3 63.0566V70H156.674V60.4902H158.212ZM177.979 70C177.886 69.8125 177.809 69.4785 177.751 68.998C176.995 69.7832 176.093 70.1758 175.044 70.1758C174.106 70.1758 173.336 69.9121 172.732 69.3848C172.135 68.8516 171.836 68.1777 171.836 67.3633C171.836 66.373 172.211 65.6055 172.961 65.0605C173.717 64.5098 174.777 64.2344 176.142 64.2344H177.724V63.4873C177.724 62.9189 177.554 62.4678 177.215 62.1338C176.875 61.7939 176.374 61.624 175.712 61.624C175.132 61.624 174.645 61.7705 174.253 62.0635C173.86 62.3564 173.664 62.7109 173.664 63.127H172.029C172.029 62.6523 172.196 62.1953 172.53 61.7559C172.87 61.3105 173.327 60.959 173.901 60.7012C174.481 60.4434 175.117 60.3145 175.808 60.3145C176.904 60.3145 177.763 60.5898 178.384 61.1406C179.005 61.6855 179.327 62.4385 179.35 63.3994V67.7764C179.35 68.6494 179.462 69.3438 179.684 69.8594V70H177.979ZM175.281 68.7607C175.791 68.7607 176.274 68.6289 176.731 68.3652C177.188 68.1016 177.519 67.7588 177.724 67.3369V65.3857H176.45C174.458 65.3857 173.462 65.9688 173.462 67.1348C173.462 67.6445 173.632 68.043 173.971 68.3301C174.311 68.6172 174.748 68.7607 175.281 68.7607ZM183.745 58.1875V60.4902H185.521V61.7471H183.745V67.6445C183.745 68.0254 183.824 68.3125 183.983 68.5059C184.141 68.6934 184.41 68.7871 184.791 68.7871C184.979 68.7871 185.236 68.752 185.565 68.6816V70C185.137 70.1172 184.721 70.1758 184.317 70.1758C183.59 70.1758 183.042 69.9561 182.673 69.5166C182.304 69.0771 182.119 68.4531 182.119 67.6445V61.7471H180.388V60.4902H182.119V58.1875H183.745ZM191.665 61.9492C191.418 61.9082 191.152 61.8877 190.865 61.8877C189.798 61.8877 189.075 62.3418 188.694 63.25V70H187.068V60.4902H188.65L188.676 61.5889C189.209 60.7393 189.965 60.3145 190.944 60.3145C191.26 60.3145 191.501 60.3555 191.665 60.4375V61.9492ZM194.574 70H192.939V60.4902H194.574V70ZM194.592 56.5088H196.56L194.205 59.0928H192.895L194.592 56.5088ZM200.709 68.8486C201.289 68.8486 201.796 68.6729 202.23 68.3213C202.663 67.9697 202.904 67.5303 202.95 67.0029H204.489C204.459 67.5479 204.272 68.0664 203.926 68.5586C203.58 69.0508 203.117 69.4434 202.537 69.7363C201.963 70.0293 201.354 70.1758 200.709 70.1758C199.414 70.1758 198.383 69.7451 197.615 68.8838C196.854 68.0166 196.473 66.833 196.473 65.333V65.0605C196.473 64.1348 196.643 63.3115 196.983 62.5908C197.323 61.8701 197.809 61.3105 198.442 60.9121C199.08 60.5137 199.833 60.3145 200.7 60.3145C201.767 60.3145 202.652 60.6338 203.355 61.2725C204.064 61.9111 204.442 62.7402 204.489 63.7598H202.95C202.904 63.1445 202.669 62.6406 202.247 62.248C201.831 61.8496 201.316 61.6504 200.7 61.6504C199.874 61.6504 199.233 61.9492 198.776 62.5469C198.324 63.1387 198.099 63.9971 198.099 65.1221V65.4297C198.099 66.5254 198.324 67.3691 198.776 67.9609C199.227 68.5527 199.871 68.8486 200.709 68.8486ZM211.828 69.0596C211.195 69.8037 210.266 70.1758 209.042 70.1758C208.028 70.1758 207.254 69.8828 206.721 69.2969C206.194 68.7051 205.927 67.832 205.921 66.6777V60.4902H207.547V66.6338C207.547 68.0752 208.133 68.7959 209.305 68.7959C210.547 68.7959 211.374 68.333 211.784 67.4072V60.4902H213.41V70H211.863L211.828 69.0596ZM217.295 70H215.669V56.5H217.295V70ZM225.416 70C225.323 69.8125 225.246 69.4785 225.188 68.998C224.432 69.7832 223.53 70.1758 222.481 70.1758C221.543 70.1758 220.773 69.9121 220.169 69.3848C219.572 68.8516 219.273 68.1777 219.273 67.3633C219.273 66.373 219.648 65.6055 220.398 65.0605C221.154 64.5098 222.214 64.2344 223.579 64.2344H225.161V63.4873C225.161 62.9189 224.992 62.4678 224.652 62.1338C224.312 61.7939 223.811 61.624 223.149 61.624C222.569 61.624 222.082 61.7705 221.69 62.0635C221.297 62.3564 221.101 62.7109 221.101 63.127H219.466C219.466 62.6523 219.633 62.1953 219.967 61.7559C220.307 61.3105 220.764 60.959 221.338 60.7012C221.918 60.4434 222.554 60.3145 223.245 60.3145C224.341 60.3145 225.2 60.5898 225.821 61.1406C226.442 61.6855 226.764 62.4385 226.787 63.3994V67.7764C226.787 68.6494 226.899 69.3438 227.121 69.8594V70H225.416ZM222.718 68.7607C223.228 68.7607 223.711 68.6289 224.168 68.3652C224.625 68.1016 224.956 67.7588 225.161 67.3369V65.3857H223.887C221.895 65.3857 220.899 65.9688 220.899 67.1348C220.899 67.6445 221.069 68.043 221.409 68.3301C221.748 68.6172 222.185 68.7607 222.718 68.7607Z" fill="white"/>
<path d="M65.5 31C65.5 28.5 65.4998 28.5 65.4996 28.5H65.4989L65.4963 28.5L65.4866 28.5L65.4496 28.5L65.3072 28.5003C65.1828 28.5006 65.0006 28.5011 64.7677 28.5022C64.3021 28.5045 63.6333 28.509 62.8184 28.5179C61.1895 28.5358 58.9715 28.5716 56.6204 28.6432C54.2734 28.7148 51.7731 28.8227 49.5858 28.9865C47.471 29.1448 45.4309 29.3687 44.1318 29.7257L65.5 31ZM65.5 31C65.5 28.5 65.5001 28.5 65.5004 28.5H65.5011L65.5037 28.5L65.5134 28.5L65.5504 28.5L65.6928 28.5003C65.8172 28.5006 65.9994 28.5011 66.2322 28.5022C66.6979 28.5045 67.3667 28.509 68.1816 28.5179C69.8105 28.5358 72.0285 28.5716 74.3796 28.6432C76.7266 28.7148 79.2269 28.8227 81.4143 28.9865C83.5289 29.1448 85.569 29.3687 86.8681 29.7257L65.5 31ZM92 50.0384C94.5 50.0384 94.5 50.0382 94.5 50.038V50.0374L94.5 50.0356L94.5 50.0295L94.5 50.0079L94.4997 49.9277C94.4994 49.8583 94.4989 49.7573 94.4977 49.6282C94.4955 49.37 94.4911 48.9988 94.4822 48.5409C94.4646 47.6263 94.4292 46.3606 94.3584 44.9568C94.2204 42.2231 93.9378 38.7143 93.3118 36.3156C92.4833 33.1345 90.0348 30.5945 86.8683 29.7258C86.8688 29.7259 86.8692 29.726 86.8696 29.7261L92 50.0384ZM92 50.0384C94.5 50.0384 94.5 50.0386 94.5 50.0388M92 50.0384L94.5 50.0388M94.3584 55.12C94.2204 57.8537 93.9378 61.3624 93.3118 63.7612L94.3584 55.12ZM94.3584 55.12C94.4292 53.7162 94.4646 52.4505 94.4822 51.5359M94.3584 55.12L94.4822 51.5359M94.4822 51.5359C94.4911 51.078 94.4955 50.7068 94.4977 50.4486M94.4822 51.5359L94.4977 50.4486M94.4977 50.4486C94.4989 50.3195 94.4994 50.2185 94.4997 50.1491M94.4977 50.4486L94.4997 50.1491M94.4997 50.1491L94.5 50.0689M94.4997 50.1491L94.5 50.0689M94.5 50.0689L94.5 50.0473M94.5 50.0689L94.5 50.0473M94.5 50.0473L94.5 50.0412M94.5 50.0473L94.5 50.0412M94.5 50.0412L94.5 50.0394M94.5 50.0412L94.5 50.0394M94.5 50.0394V50.0388M94.5 50.0394V50.0388M62.5795 46.3432L68.9495 50.0385L62.5795 53.7337V46.3432ZM44.1304 29.7261C40.965 30.5951 38.5174 33.1341 37.6886 36.3142L44.1304 29.7261ZM37.6886 63.7626C38.5287 66.9861 41.0082 69.4169 44.1304 70.2739L37.6886 63.7626ZM44.1319 70.2743C45.431 70.6313 47.4711 70.8552 49.5858 71.0135C51.7731 71.1773 54.2734 71.2852 56.6204 71.3568C58.9715 71.4284 61.1895 71.4642 62.8184 71.4821C63.6333 71.491 64.3021 71.4955 64.7677 71.4978C65.0006 71.4989 65.1828 71.4994 65.3072 71.4997L65.4496 71.5L65.4866 71.5L65.4963 71.5H65.4989H65.4996C65.4998 71.5 65.5 71.5 65.5 69C65.5 71.5 65.5001 71.5 65.5004 71.5H65.5011H65.5037L65.5134 71.5L65.5504 71.5L65.6928 71.4997C65.8172 71.4994 65.9994 71.4989 66.2322 71.4978C66.6979 71.4955 67.3667 71.491 68.1816 71.4821C69.8105 71.4642 72.0285 71.4284 74.3796 71.3568C76.7266 71.2852 79.2269 71.1773 81.4142 71.0135C83.5289 70.8552 85.569 70.6313 86.8681 70.2743C89.991 69.4177 92.4712 66.9867 93.3114 63.7626L44.1319 70.2743Z" fill="#97e70e" stroke="white" stroke-width="5"/>
<defs>
<filter id="filter0_b_60_96" x="-15" y="-15" width="360" height="130" filterUnits="userSpaceOnUse" color-interpolation-filters="sRGB">
<feFlood flood-opacity="0" result="BackgroundImageFix"/>
<feGaussianBlur in="BackgroundImage" stdDeviation="7.5"/>
<feComposite in2="SourceAlpha" operator="in" result="effect1_backgroundBlur_60_96"/>
<feBlend mode="normal" in="SourceGraphic" in2="effect1_backgroundBlur_60_96" result="shape"/>
</filter>
</defs>
</svg>
